<svg width="197" height="197" viewBox="0 0 197 197" fill="none" xmlns="http://www.w3.org/2000/svg">
<path d="M197 175.111C197 180.916 194.694 186.484 190.589 190.589C186.484 194.694 180.916 197 175.111 197H21.8889C16.0836 197 10.5161 194.694 6.41111 190.589C2.30614 186.484 0 180.916 0 175.111V21.8889C0 16.0836 2.30614 10.5161 6.41111 6.41111C10.5161 2.30614 16.0836 0 21.8889 0L175.111 0C180.916 0 186.484 2.30614 190.589 6.41111C194.694 10.5161 197 16.0836 197 21.8889V175.111Z" fill="url(#paint0_linear_15_5)"/>
<path d="M58.9741 51.1215C58.9741 42.9789 63.5544 37.8897 72.0418 37.8897H101.904C128.034 37.8897 144.149 49.6003 144.149 76.2336C144.149 94.8993 130.069 105.587 112.761 108.301L141.61 139.186C143.98 141.731 144.997 144.275 144.997 146.65C144.997 153.266 139.739 159.712 132.28 159.712C129.221 159.712 125.15 158.525 122.435 155.302L84.7702 109.658H84.4309V146.475C84.4309 154.962 79.0025 159.707 71.7025 159.707C64.4026 159.707 58.9741 154.962 58.9741 146.475V51.1215V51.1215ZM84.4254 91.3314H101.898C111.228 91.3314 117.68 85.7333 117.68 76.2336C117.68 66.5642 111.223 61.2999 101.898 61.2999H84.4254V91.3314Z" fill="white"/>
<defs>
<linearGradient id="paint0_linear_15_5" x1="98.5" y1="0" x2="98.5" y2="197" gradientUnits="userSpaceOnUse">
<stop stop-color="#75E6DA"/>
<stop offset="1" stop-color="#189AB4"/>
</linearGradient>
</defs>
</svg>
